<svg xmlns="http://www.w3.org/2000/svg" xmlns:xlink="http://www.w3.org/1999/xlink" width="1920" zoomAndPan="magnify" viewBox="0 0 1440 809.999993" height="1080" preserveAspectRatio="xMidYMid meet" version="1.0"><defs><g/><clipPath id="84e5cf15e6"><rect x="0" width="1323" y="0" height="554"/></clipPath></defs><g transform="matrix(1, 0, 0, 1, 45, 80)"><g clip-path="url(#84e5cf15e6)"><g fill="#1b2b4b" fill-opacity="1"><g transform="translate(1.055614, 252.351434)"><g><path d="M 19.140625 -146.328125 L 19.140625 -173.765625 L 53.390625 -173.765625 L 53.390625 -146.328125 Z M 19.890625 0 L 19.890625 -128.9375 L 52.390625 -128.9375 L 52.390625 0 Z M 19.890625 0 "/></g></g></g><g fill="#1b2b4b" fill-opacity="1"><g transform="translate(64.269869, 252.351434)"><g><path d="M 55.15625 0 C 45.082031 0 37.398438 -2.851562 32.109375 -8.5625 C 26.816406 -14.269531 24.171875 -22.5 24.171875 -33.25 L 24.171875 -105.78125 L 5.796875 -105.78125 L 5.796875 -128.9375 L 24.171875 -128.9375 L 24.171875 -158.65625 L 56.671875 -158.65625 L 56.671875 -128.9375 L 84.375 -128.9375 L 84.375 -105.78125 L 56.671875 -105.78125 L 56.671875 -41.046875 C 56.671875 -35.335938 57.675781 -31.347656 59.6875 -29.078125 C 61.695312 -26.816406 65.054688 -25.6875 69.765625 -25.6875 L 84.375 -25.6875 L 84.375 0 Z M 55.15625 0 "/></g></g></g><g fill="#1b2b4b" fill-opacity="1"><g transform="translate(150.150606, 252.351434)"><g><path d="M 24.6875 -99.21875 L 36.765625 -137 L 22.421875 -137 L 22.421875 -173.765625 L 62.703125 -173.765625 L 62.703125 -137 L 42.0625 -99.21875 Z M 24.6875 -99.21875 "/></g></g></g><g fill="#1b2b4b" fill-opacity="1"><g transform="translate(201.276089, 252.351434)"><g><path d="M 71.265625 2.515625 C 63.046875 2.515625 55.453125 1.800781 48.484375 0.375 C 41.515625 -1.050781 35.34375 -3.609375 29.96875 -7.296875 C 24.257812 -10.992188 19.722656 -15.863281 16.359375 -21.90625 C 13.003906 -27.957031 11.328125 -35.175781 11.328125 -43.5625 L 40.296875 -43.5625 C 40.460938 -35.507812 42.8125 -29.632812 47.34375 -25.9375 C 52.21875 -22.070312 59.101562 -20.3125 68 -20.65625 C 73.207031 -20.820312 77.738281 -22.160156 81.59375 -24.671875 C 85.457031 -27.191406 87.390625 -31.054688 87.390625 -36.265625 C 87.390625 -42.140625 84.742188 -46.082031 79.453125 -48.09375 C 74.171875 -50.113281 67.160156 -52.210938 58.421875 -54.390625 C 51.367188 -56.078125 44.441406 -58.132812 37.640625 -60.5625 C 30.847656 -63 25.269531 -66.609375 20.90625 -71.390625 C 16.539062 -76.179688 14.359375 -83.023438 14.359375 -91.921875 C 14.359375 -100.984375 16.582031 -108.453125 21.03125 -114.328125 C 25.476562 -120.210938 31.4375 -124.539062 38.90625 -127.3125 C 46.375 -130.082031 54.644531 -131.46875 63.71875 -131.46875 C 77.488281 -131.46875 88.738281 -128.695312 97.46875 -123.15625 C 103.34375 -119.625 107.957031 -114.960938 111.3125 -109.171875 C 114.675781 -103.378906 116.359375 -96.539062 116.359375 -88.65625 L 88.65625 -88.65625 C 88.65625 -95.695312 86.382812 -100.816406 81.84375 -104.015625 C 79.832031 -105.523438 77.359375 -106.613281 74.421875 -107.28125 C 71.484375 -107.957031 68.332031 -108.296875 64.96875 -108.296875 C 59.257812 -108.296875 54.429688 -107.078125 50.484375 -104.640625 C 46.546875 -102.203125 44.578125 -98.800781 44.578125 -94.4375 C 44.578125 -91.082031 46.003906 -88.476562 48.859375 -86.625 C 51.710938 -84.78125 55.65625 -83.1875 60.6875 -81.84375 C 65.726562 -80.5 71.4375 -78.988281 77.8125 -77.3125 C 85.039062 -75.46875 91.757812 -73.242188 97.96875 -70.640625 C 104.175781 -68.035156 109.210938 -64.296875 113.078125 -59.421875 C 116.941406 -54.554688 118.875 -47.757812 118.875 -39.03125 C 118.875 -29.800781 116.773438 -22.117188 112.578125 -15.984375 C 108.378906 -9.859375 102.671875 -5.242188 95.453125 -2.140625 C 88.234375 0.960938 80.171875 2.515625 71.265625 2.515625 Z M 71.265625 2.515625 "/></g></g></g><g fill="#1b2b4b" fill-opacity="1"><g transform="translate(323.171313, 252.351434)"><g/></g></g><g fill="#1b2b4b" fill-opacity="1"><g transform="translate(371.778294, 252.351434)"><g><path d="M 53.890625 2.765625 C 41.640625 2.765625 31.648438 -0.421875 23.921875 -6.796875 C 16.203125 -13.179688 12.34375 -21.910156 12.34375 -32.984375 C 12.34375 -42.390625 14.734375 -50.15625 19.515625 -56.28125 C 24.304688 -62.414062 30.644531 -67.242188 38.53125 -70.765625 C 46.425781 -74.296875 55.328125 -76.6875 65.234375 -77.9375 C 75.140625 -79.195312 85.460938 -79.742188 96.203125 -79.578125 L 96.203125 -85.375 C 96.203125 -91.925781 94.898438 -96.835938 92.296875 -100.109375 C 89.691406 -103.378906 86.414062 -105.5625 82.46875 -106.65625 C 78.53125 -107.75 74.460938 -108.296875 70.265625 -108.296875 C 65.734375 -108.296875 61.367188 -107.75 57.171875 -106.65625 C 52.972656 -105.5625 49.53125 -103.585938 46.84375 -100.734375 C 44.15625 -97.878906 42.8125 -93.851562 42.8125 -88.65625 L 13.59375 -88.65625 C 13.59375 -98.382812 16.109375 -106.394531 21.140625 -112.6875 C 26.179688 -118.988281 32.984375 -123.691406 41.546875 -126.796875 C 50.109375 -129.910156 59.515625 -131.46875 69.765625 -131.46875 C 80.003906 -131.46875 89.320312 -129.953125 97.71875 -126.921875 C 106.113281 -123.898438 112.785156 -119.113281 117.734375 -112.5625 C 122.691406 -106.019531 125.171875 -97.378906 125.171875 -86.640625 L 125.171875 0 L 96.203125 0 L 96.203125 -15.859375 C 89.316406 -8.140625 82.097656 -3.101562 74.546875 -0.75 C 66.992188 1.589844 60.109375 2.765625 53.890625 2.765625 Z M 65.734375 -21.40625 C 71.441406 -21.570312 77.019531 -23.125 82.46875 -26.0625 C 87.925781 -29 92.503906 -33.070312 96.203125 -38.28125 L 96.203125 -59.9375 C 89.992188 -60.4375 83.65625 -60.304688 77.1875 -59.546875 C 70.726562 -58.796875 65.0625 -57.25 60.1875 -54.90625 C 56.15625 -53.050781 52.878906 -50.613281 50.359375 -47.59375 C 47.847656 -44.570312 46.59375 -41.046875 46.59375 -37.015625 C 46.59375 -31.816406 48.394531 -27.875 52 -25.1875 C 55.613281 -22.5 60.191406 -21.238281 65.734375 -21.40625 Z M 65.734375 -21.40625 "/></g></g></g><g fill="#1b2b4b" fill-opacity="1"><g transform="translate(505.263674, 252.351434)"><g/></g></g><g fill="#85b7eb" fill-opacity="1"><g transform="translate(1.055614, 502.477083)"><g><path d="M 94.1875 2.515625 C 80.59375 2.515625 68.84375 0.164062 58.9375 -4.53125 C 49.03125 -9.226562 40.800781 -15.734375 34.25 -24.046875 C 27.695312 -32.359375 22.867188 -41.925781 19.765625 -52.75 C 16.660156 -63.582031 15.109375 -75.046875 15.109375 -87.140625 C 15.109375 -99.222656 16.703125 -110.632812 19.890625 -121.375 C 23.085938 -132.125 27.914062 -141.65625 34.375 -149.96875 C 40.84375 -158.28125 49.03125 -164.785156 58.9375 -169.484375 C 68.84375 -174.191406 80.507812 -176.546875 93.9375 -176.546875 C 106.695312 -176.546875 118.53125 -174.023438 129.4375 -168.984375 C 140.351562 -163.953125 149.253906 -156.394531 156.140625 -146.3125 C 163.023438 -136.238281 166.71875 -123.484375 167.21875 -108.046875 L 135.484375 -108.046875 C 134.316406 -120.296875 130.164062 -129.820312 123.03125 -136.625 C 115.894531 -143.425781 106.363281 -146.828125 94.4375 -146.828125 C 80.164062 -146.828125 68.914062 -141.578125 60.6875 -131.078125 C 52.46875 -120.585938 48.359375 -106.109375 48.359375 -87.640625 C 48.359375 -68.671875 52.507812 -53.851562 60.8125 -43.1875 C 69.125 -32.53125 80.5 -27.203125 94.9375 -27.203125 C 106.019531 -27.203125 115.335938 -30.769531 122.890625 -37.90625 C 130.453125 -45.039062 134.648438 -54.398438 135.484375 -65.984375 L 167.21875 -65.984375 C 166.71875 -50.703125 163.023438 -37.984375 156.140625 -27.828125 C 149.253906 -17.671875 140.394531 -10.070312 129.5625 -5.03125 C 118.738281 0 106.945312 2.515625 94.1875 2.515625 Z M 94.1875 2.515625 "/></g></g></g><g fill="#85b7eb" fill-opacity="1"><g transform="translate(173.824476, 502.477083)"><g><path d="M 19.890625 0 L 19.890625 -173.765625 L 52.390625 -173.765625 L 52.390625 0 Z M 19.890625 0 "/></g></g></g><g fill="#85b7eb" fill-opacity="1"><g transform="translate(237.038742, 502.477083)"><g><path d="M 130.453125 -67.25 C 130.453125 -65.226562 130.410156 -63.335938 130.328125 -61.578125 C 130.242188 -59.816406 130.117188 -58.09375 129.953125 -56.40625 L 43.3125 -56.40625 C 44.15625 -45.664062 47.257812 -37.441406 52.625 -31.734375 C 58 -26.023438 65.222656 -23.171875 74.296875 -23.171875 C 82.347656 -23.171875 88.390625 -25.140625 92.421875 -29.078125 C 96.453125 -33.023438 98.972656 -37.851562 99.984375 -43.5625 L 127.9375 -43.5625 C 126.59375 -33.15625 123.359375 -24.507812 118.234375 -17.625 C 113.117188 -10.738281 106.78125 -5.660156 99.21875 -2.390625 C 91.664062 0.878906 83.441406 2.515625 74.546875 2.515625 C 62.117188 2.515625 51.160156 -0.207031 41.671875 -5.65625 C 32.191406 -11.113281 24.804688 -18.835938 19.515625 -28.828125 C 14.222656 -38.828125 11.578125 -50.457031 11.578125 -63.71875 C 11.578125 -76.8125 13.882812 -88.4375 18.5 -98.59375 C 23.125 -108.75 29.96875 -116.765625 39.03125 -122.640625 C 48.101562 -128.523438 59.269531 -131.46875 72.53125 -131.46875 C 85.125 -131.46875 95.742188 -128.613281 104.390625 -122.90625 C 113.035156 -117.195312 119.539062 -109.515625 123.90625 -99.859375 C 128.269531 -90.203125 130.453125 -79.332031 130.453125 -67.25 Z M 72.03125 -106.28125 C 54.738281 -106.28125 45.164062 -96.960938 43.3125 -78.328125 L 99.21875 -78.328125 C 98.882812 -86.046875 96.617188 -92.632812 92.421875 -98.09375 C 88.222656 -103.550781 81.425781 -106.28125 72.03125 -106.28125 Z M 72.03125 -106.28125 "/></g></g></g><g fill="#85b7eb" fill-opacity="1"><g transform="translate(368.000563, 502.477083)"><g><path d="M 53.890625 2.765625 C 41.640625 2.765625 31.648438 -0.421875 23.921875 -6.796875 C 16.203125 -13.179688 12.34375 -21.910156 12.34375 -32.984375 C 12.34375 -42.390625 14.734375 -50.15625 19.515625 -56.28125 C 24.304688 -62.414062 30.644531 -67.242188 38.53125 -70.765625 C 46.425781 -74.296875 55.328125 -76.6875 65.234375 -77.9375 C 75.140625 -79.195312 85.460938 -79.742188 96.203125 -79.578125 L 96.203125 -85.375 C 96.203125 -91.925781 94.898438 -96.835938 92.296875 -100.109375 C 89.691406 -103.378906 86.414062 -105.5625 82.46875 -106.65625 C 78.53125 -107.75 74.460938 -108.296875 70.265625 -108.296875 C 65.734375 -108.296875 61.367188 -107.75 57.171875 -106.65625 C 52.972656 -105.5625 49.53125 -103.585938 46.84375 -100.734375 C 44.15625 -97.878906 42.8125 -93.851562 42.8125 -88.65625 L 13.59375 -88.65625 C 13.59375 -98.382812 16.109375 -106.394531 21.140625 -112.6875 C 26.179688 -118.988281 32.984375 -123.691406 41.546875 -126.796875 C 50.109375 -129.910156 59.515625 -131.46875 69.765625 -131.46875 C 80.003906 -131.46875 89.320312 -129.953125 97.71875 -126.921875 C 106.113281 -123.898438 112.785156 -119.113281 117.734375 -112.5625 C 122.691406 -106.019531 125.171875 -97.378906 125.171875 -86.640625 L 125.171875 0 L 96.203125 0 L 96.203125 -15.859375 C 89.316406 -8.140625 82.097656 -3.101562 74.546875 -0.75 C 66.992188 1.589844 60.109375 2.765625 53.890625 2.765625 Z M 65.734375 -21.40625 C 71.441406 -21.570312 77.019531 -23.125 82.46875 -26.0625 C 87.925781 -29 92.503906 -33.070312 96.203125 -38.28125 L 96.203125 -59.9375 C 89.992188 -60.4375 83.65625 -60.304688 77.1875 -59.546875 C 70.726562 -58.796875 65.0625 -57.25 60.1875 -54.90625 C 56.15625 -53.050781 52.878906 -50.613281 50.359375 -47.59375 C 47.847656 -44.570312 46.59375 -41.046875 46.59375 -37.015625 C 46.59375 -31.816406 48.394531 -27.875 52 -25.1875 C 55.613281 -22.5 60.191406 -21.238281 65.734375 -21.40625 Z M 65.734375 -21.40625 "/></g></g></g><g fill="#85b7eb" fill-opacity="1"><g transform="translate(501.480915, 502.477083)"><g><path d="M 19.140625 0 L 19.140625 -128.9375 L 50.875 -128.9375 L 50.875 -112.078125 C 53.394531 -117.785156 57.210938 -122.359375 62.328125 -125.796875 C 67.453125 -129.234375 73.457031 -130.953125 80.34375 -130.953125 C 84.03125 -130.953125 88.3125 -130.28125 93.1875 -128.9375 L 93.1875 -99.484375 L 88.390625 -99.484375 C 84.703125 -100.648438 80.925781 -101.234375 77.0625 -101.234375 C 69.34375 -101.234375 63.210938 -98.421875 58.671875 -92.796875 C 54.140625 -87.179688 51.875 -79.921875 51.875 -71.015625 L 51.875 0 Z M 19.140625 0 "/></g></g></g><g fill="#1b2b4b" fill-opacity="1"><g transform="translate(591.644901, 502.477083)"><g><path d="M 83.609375 2.015625 C 75.378906 2.015625 67.148438 1.007812 58.921875 -1 C 50.703125 -3.019531 43.191406 -6.378906 36.390625 -11.078125 C 29.585938 -15.773438 24.128906 -21.984375 20.015625 -29.703125 C 15.898438 -37.429688 13.84375 -47.085938 13.84375 -58.671875 L 47.59375 -58.671875 C 47.59375 -50.785156 49.269531 -44.488281 52.625 -39.78125 C 55.988281 -35.082031 60.398438 -31.726562 65.859375 -29.71875 C 71.316406 -27.707031 77.234375 -26.703125 83.609375 -26.703125 C 91.835938 -26.703125 98.382812 -28.585938 103.25 -32.359375 C 108.125 -36.140625 110.5625 -41.390625 110.5625 -48.109375 C 110.5625 -53.640625 108.796875 -58.082031 105.265625 -61.4375 C 101.742188 -64.800781 97.085938 -67.613281 91.296875 -69.875 C 85.503906 -72.144531 79.082031 -74.457031 72.03125 -76.8125 C 65.976562 -78.820312 59.847656 -81.085938 53.640625 -83.609375 C 47.429688 -86.128906 41.765625 -89.234375 36.640625 -92.921875 C 31.523438 -96.617188 27.367188 -101.320312 24.171875 -107.03125 C 20.984375 -112.738281 19.390625 -119.789062 19.390625 -128.1875 C 19.390625 -138.425781 21.863281 -147.113281 26.8125 -154.25 C 31.769531 -161.382812 38.65625 -166.84375 47.46875 -170.625 C 56.28125 -174.40625 66.394531 -176.296875 77.8125 -176.296875 C 89.226562 -176.296875 99.640625 -174.570312 109.046875 -171.125 C 118.453125 -167.6875 125.96875 -162.226562 131.59375 -154.75 C 137.21875 -147.28125 140.03125 -137.421875 140.03125 -125.171875 L 105.78125 -125.171875 C 105.945312 -134.066406 103.175781 -140.359375 97.46875 -144.046875 C 91.757812 -147.742188 85.207031 -149.59375 77.8125 -149.59375 C 70.59375 -149.59375 64.757812 -148.082031 60.3125 -145.0625 C 55.863281 -142.039062 53.640625 -137.59375 53.640625 -131.71875 C 53.640625 -127.1875 55.109375 -123.445312 58.046875 -120.5 C 60.984375 -117.5625 65.007812 -115 70.125 -112.8125 C 75.25 -110.632812 80.921875 -108.375 87.140625 -106.03125 C 93.347656 -103.84375 99.8125 -101.488281 106.53125 -98.96875 C 113.25 -96.457031 119.546875 -93.226562 125.421875 -89.28125 C 131.296875 -85.332031 136.078125 -80.289062 139.765625 -74.15625 C 143.460938 -68.03125 145.3125 -60.269531 145.3125 -50.875 C 145.3125 -34.582031 139.769531 -21.691406 128.6875 -12.203125 C 117.613281 -2.722656 102.585938 2.015625 83.609375 2.015625 Z M 83.609375 2.015625 "/></g></g></g><g fill="#1b2b4b" fill-opacity="1"><g transform="translate(742.250999, 502.477083)"><g><path d="M 19.140625 44.828125 L 19.140625 -128.9375 L 51.625 -128.9375 L 51.625 -111.0625 C 56.15625 -117.78125 62.113281 -122.859375 69.5 -126.296875 C 76.894531 -129.742188 84.789062 -131.46875 93.1875 -131.46875 C 104.4375 -131.46875 114.171875 -128.613281 122.390625 -122.90625 C 130.617188 -117.195312 137 -109.347656 141.53125 -99.359375 C 146.0625 -89.367188 148.328125 -77.738281 148.328125 -64.46875 C 148.328125 -51.207031 146.0625 -39.539062 141.53125 -29.46875 C 137 -19.394531 130.578125 -11.503906 122.265625 -5.796875 C 113.953125 -0.0859375 104.175781 2.765625 92.9375 2.765625 C 84.195312 2.765625 76.050781 1.003906 68.5 -2.515625 C 60.945312 -6.046875 55.15625 -11.335938 51.125 -18.390625 L 51.125 44.828125 Z M 82.609375 -24.421875 C 92.679688 -24.421875 100.65625 -27.820312 106.53125 -34.625 C 112.40625 -41.425781 115.34375 -51.539062 115.34375 -64.96875 C 115.34375 -77.726562 112.40625 -87.46875 106.53125 -94.1875 C 100.65625 -100.90625 92.679688 -104.265625 82.609375 -104.265625 C 72.867188 -104.265625 65.0625 -100.738281 59.1875 -93.6875 C 53.3125 -86.632812 50.375 -77.0625 50.375 -64.96875 C 50.375 -52.039062 53.3125 -42.050781 59.1875 -35 C 65.0625 -27.945312 72.867188 -24.421875 82.609375 -24.421875 Z M 82.609375 -24.421875 "/></g></g></g><g fill="#1b2b4b" fill-opacity="1"><g transform="translate(896.13118, 502.477083)"><g><path d="M 130.453125 -67.25 C 130.453125 -65.226562 130.410156 -63.335938 130.328125 -61.578125 C 130.242188 -59.816406 130.117188 -58.09375 129.953125 -56.40625 L 43.3125 -56.40625 C 44.15625 -45.664062 47.257812 -37.441406 52.625 -31.734375 C 58 -26.023438 65.222656 -23.171875 74.296875 -23.171875 C 82.347656 -23.171875 88.390625 -25.140625 92.421875 -29.078125 C 96.453125 -33.023438 98.972656 -37.851562 99.984375 -43.5625 L 127.9375 -43.5625 C 126.59375 -33.15625 123.359375 -24.507812 118.234375 -17.625 C 113.117188 -10.738281 106.78125 -5.660156 99.21875 -2.390625 C 91.664062 0.878906 83.441406 2.515625 74.546875 2.515625 C 62.117188 2.515625 51.160156 -0.207031 41.671875 -5.65625 C 32.191406 -11.113281 24.804688 -18.835938 19.515625 -28.828125 C 14.222656 -38.828125 11.578125 -50.457031 11.578125 -63.71875 C 11.578125 -76.8125 13.882812 -88.4375 18.5 -98.59375 C 23.125 -108.75 29.96875 -116.765625 39.03125 -122.640625 C 48.101562 -128.523438 59.269531 -131.46875 72.53125 -131.46875 C 85.125 -131.46875 95.742188 -128.613281 104.390625 -122.90625 C 113.035156 -117.195312 119.539062 -109.515625 123.90625 -99.859375 C 128.269531 -90.203125 130.453125 -79.332031 130.453125 -67.25 Z M 72.03125 -106.28125 C 54.738281 -106.28125 45.164062 -96.960938 43.3125 -78.328125 L 99.21875 -78.328125 C 98.882812 -86.046875 96.617188 -92.632812 92.421875 -98.09375 C 88.222656 -103.550781 81.425781 -106.28125 72.03125 -106.28125 Z M 72.03125 -106.28125 "/></g></g></g><g fill="#1b2b4b" fill-opacity="1"><g transform="translate(1027.093024, 502.477083)"><g><path d="M 19.140625 0 L 19.140625 -128.9375 L 51.125 -128.9375 L 51.125 -113.078125 C 55.65625 -118.953125 61.234375 -123.484375 67.859375 -126.671875 C 74.492188 -129.867188 82.429688 -131.46875 91.671875 -131.46875 C 105.097656 -131.46875 115.800781 -127.226562 123.78125 -118.75 C 131.757812 -110.269531 135.75 -98.976562 135.75 -84.875 L 135.75 0 L 103.25 0 L 103.25 -76.5625 C 103.25 -86.632812 101.191406 -93.851562 97.078125 -98.21875 C 92.972656 -102.582031 87.394531 -104.765625 80.34375 -104.765625 C 71.945312 -104.765625 65.0625 -102.035156 59.6875 -96.578125 C 54.3125 -91.117188 51.625 -83.4375 51.625 -73.53125 L 51.625 0 Z M 19.140625 0 "/></g></g></g><g fill="#1b2b4b" fill-opacity="1"><g transform="translate(1171.402916, 502.477083)"><g><path d="M 66.984375 2.765625 C 55.066406 2.765625 44.953125 -0.0859375 36.640625 -5.796875 C 28.328125 -11.503906 22.03125 -19.4375 17.75 -29.59375 C 13.46875 -39.75 11.328125 -51.375 11.328125 -64.46875 C 11.328125 -77.5625 13.425781 -89.144531 17.625 -99.21875 C 21.820312 -109.300781 28.078125 -117.195312 36.390625 -122.90625 C 44.703125 -128.613281 54.816406 -131.46875 66.734375 -131.46875 C 74.796875 -131.46875 82.476562 -129.828125 89.78125 -126.546875 C 97.082031 -123.273438 103.085938 -118.195312 107.796875 -111.3125 L 107.796875 -173.765625 L 140.53125 -173.765625 L 140.53125 0 L 108.546875 0 L 108.546875 -18.390625 C 104.179688 -11.171875 98.347656 -5.835938 91.046875 -2.390625 C 83.742188 1.042969 75.722656 2.765625 66.984375 2.765625 Z M 77.0625 -24.171875 C 86.632812 -24.171875 94.316406 -27.78125 100.109375 -35 C 105.898438 -42.21875 108.796875 -52.125 108.796875 -64.71875 C 108.796875 -76.644531 105.898438 -86.21875 100.109375 -93.4375 C 94.316406 -100.65625 86.632812 -104.265625 77.0625 -104.265625 C 66.320312 -104.265625 58.179688 -100.820312 52.640625 -93.9375 C 47.097656 -87.050781 44.328125 -77.3125 44.328125 -64.71875 C 44.328125 -51.457031 47.097656 -41.382812 52.640625 -34.5 C 58.179688 -27.613281 66.320312 -24.171875 77.0625 -24.171875 Z M 77.0625 -24.171875 "/></g></g></g></g></g></svg>