<svg xmlns="http://www.w3.org/2000/svg" xmlns:xlink="http://www.w3.org/1999/xlink" width="1920" zoomAndPan="magnify" viewBox="0 0 1440 809.999993" height="1080" preserveAspectRatio="xMidYMid meet" version="1.0"><defs><g/></defs><g fill="#85b7eb" fill-opacity="1"><g transform="translate(0.00000622222, 409.431151)"><g><path d="M 153.5 4.109375 C 131.34375 4.109375 112.191406 0.28125 96.046875 -7.375 C 79.898438 -15.039062 66.488281 -25.644531 55.8125 -39.1875 C 45.144531 -52.738281 37.28125 -68.335938 32.21875 -85.984375 C 27.15625 -103.628906 24.625 -122.304688 24.625 -142.015625 C 24.625 -161.710938 27.222656 -180.316406 32.421875 -197.828125 C 37.617188 -215.335938 45.484375 -230.863281 56.015625 -244.40625 C 66.554688 -257.957031 79.898438 -268.5625 96.046875 -276.21875 C 112.191406 -283.882812 131.207031 -287.71875 153.09375 -287.71875 C 173.882812 -287.71875 193.171875 -283.613281 210.953125 -275.40625 C 228.742188 -267.195312 243.25 -254.882812 254.46875 -238.46875 C 265.6875 -222.050781 271.707031 -201.253906 272.53125 -176.078125 L 220.8125 -176.078125 C 218.894531 -196.054688 212.125 -211.582031 200.5 -222.65625 C 188.875 -233.738281 173.347656 -239.28125 153.921875 -239.28125 C 130.660156 -239.28125 112.320312 -230.726562 98.90625 -213.625 C 85.5 -196.53125 78.796875 -172.929688 78.796875 -142.828125 C 78.796875 -111.910156 85.566406 -87.765625 99.109375 -70.390625 C 112.660156 -53.015625 131.203125 -44.328125 154.734375 -44.328125 C 172.796875 -44.328125 187.984375 -50.140625 200.296875 -61.765625 C 212.609375 -73.398438 219.445312 -88.65625 220.8125 -107.53125 L 272.53125 -107.53125 C 271.707031 -82.632812 265.6875 -61.90625 254.46875 -45.34375 C 243.25 -28.789062 228.816406 -16.410156 211.171875 -8.203125 C 193.523438 0.00390625 174.300781 4.109375 153.5 4.109375 Z M 153.5 4.109375 "/></g></g></g><g fill="#85b7eb" fill-opacity="1"><g transform="translate(281.554447, 409.431151)"><g><path d="M 32.421875 0 L 32.421875 -283.203125 L 85.375 -283.203125 L 85.375 0 Z M 32.421875 0 "/></g></g></g><g fill="#85b7eb" fill-opacity="1"><g transform="translate(384.572142, 409.431151)"><g><path d="M 212.609375 -109.59375 C 212.609375 -106.300781 212.539062 -103.21875 212.40625 -100.34375 C 212.269531 -97.476562 212.0625 -94.675781 211.78125 -91.9375 L 70.59375 -91.9375 C 71.957031 -74.425781 77.019531 -61.019531 85.78125 -51.71875 C 94.539062 -42.414062 106.304688 -37.765625 121.078125 -37.765625 C 134.210938 -37.765625 144.0625 -40.976562 150.625 -47.40625 C 157.195312 -53.832031 161.300781 -61.695312 162.9375 -71 L 208.5 -71 C 206.3125 -54.039062 201.046875 -39.953125 192.703125 -28.734375 C 184.359375 -17.515625 174.03125 -9.234375 161.71875 -3.890625 C 149.40625 1.441406 135.992188 4.109375 121.484375 4.109375 C 101.234375 4.109375 83.378906 -0.335938 67.921875 -9.234375 C 52.460938 -18.128906 40.421875 -30.71875 31.796875 -47 C 23.179688 -63.28125 18.875 -82.226562 18.875 -103.84375 C 18.875 -125.1875 22.632812 -144.132812 30.15625 -160.6875 C 37.6875 -177.238281 48.835938 -190.300781 63.609375 -199.875 C 78.390625 -209.457031 96.585938 -214.25 118.203125 -214.25 C 138.722656 -214.25 156.03125 -209.597656 170.125 -200.296875 C 184.21875 -190.992188 194.820312 -178.472656 201.9375 -162.734375 C 209.050781 -147.003906 212.609375 -129.289062 212.609375 -109.59375 Z M 117.390625 -173.203125 C 89.203125 -173.203125 73.601562 -158.015625 70.59375 -127.640625 L 161.71875 -127.640625 C 161.164062 -140.234375 157.46875 -150.972656 150.625 -159.859375 C 143.789062 -168.753906 132.710938 -173.203125 117.390625 -173.203125 Z M 117.390625 -173.203125 "/></g></g></g><g fill="#85b7eb" fill-opacity="1"><g transform="translate(597.995334, 409.431151)"><g><path d="M 87.828125 4.515625 C 67.859375 4.515625 51.578125 -0.679688 38.984375 -11.078125 C 26.398438 -21.472656 20.109375 -35.703125 20.109375 -53.765625 C 20.109375 -69.085938 24.003906 -81.742188 31.796875 -91.734375 C 39.597656 -101.722656 49.929688 -109.585938 62.796875 -115.328125 C 75.660156 -121.078125 90.160156 -124.976562 106.296875 -127.03125 C 122.441406 -129.082031 139.269531 -129.972656 156.78125 -129.703125 L 156.78125 -139.140625 C 156.78125 -149.804688 154.660156 -157.804688 150.421875 -163.140625 C 146.179688 -168.484375 140.84375 -172.039062 134.40625 -173.8125 C 127.976562 -175.59375 121.347656 -176.484375 114.515625 -176.484375 C 107.128906 -176.484375 100.015625 -175.59375 93.171875 -173.8125 C 86.328125 -172.039062 80.71875 -168.828125 76.34375 -164.171875 C 71.96875 -159.523438 69.78125 -152.957031 69.78125 -144.46875 L 22.15625 -144.46875 C 22.15625 -160.34375 26.257812 -173.410156 34.46875 -183.671875 C 42.6875 -193.929688 53.769531 -201.59375 67.71875 -206.65625 C 81.675781 -211.71875 97 -214.25 113.6875 -214.25 C 130.382812 -214.25 145.570312 -211.785156 159.25 -206.859375 C 172.925781 -201.929688 183.800781 -194.128906 191.875 -183.453125 C 199.945312 -172.785156 203.984375 -158.695312 203.984375 -141.1875 L 203.984375 0 L 156.78125 0 L 156.78125 -25.859375 C 145.5625 -13.273438 133.796875 -5.066406 121.484375 -1.234375 C 109.171875 2.597656 97.953125 4.515625 87.828125 4.515625 Z M 107.125 -34.890625 C 116.425781 -35.160156 125.519531 -37.6875 134.40625 -42.46875 C 143.300781 -47.257812 150.757812 -53.898438 156.78125 -62.390625 L 156.78125 -97.6875 C 146.65625 -98.507812 136.328125 -98.300781 125.796875 -97.0625 C 115.265625 -95.832031 106.03125 -93.300781 98.09375 -89.46875 C 91.53125 -86.457031 86.195312 -82.488281 82.09375 -77.5625 C 77.988281 -72.644531 75.9375 -66.898438 75.9375 -60.328125 C 75.9375 -51.847656 78.875 -45.421875 84.75 -41.046875 C 90.632812 -36.671875 98.09375 -34.617188 107.125 -34.890625 Z M 107.125 -34.890625 "/></g></g></g><g fill="#85b7eb" fill-opacity="1"><g transform="translate(815.522788, 409.431151)"><g><path d="M 31.1875 0 L 31.1875 -210.140625 L 82.90625 -210.140625 L 82.90625 -182.640625 C 87.007812 -191.941406 93.234375 -199.394531 101.578125 -205 C 109.929688 -210.613281 119.710938 -213.421875 130.921875 -213.421875 C 136.941406 -213.421875 143.921875 -212.328125 151.859375 -210.140625 L 151.859375 -162.125 L 144.0625 -162.125 C 138.039062 -164.039062 131.882812 -165 125.59375 -165 C 113.007812 -165 103.019531 -160.414062 95.625 -151.25 C 88.238281 -142.082031 84.546875 -130.25 84.546875 -115.75 L 84.546875 0 Z M 31.1875 0 "/></g></g></g><g fill="#85b7eb" fill-opacity="1"><g transform="translate(0.00000622222, 726.681135)"><g><path d="M 136.265625 3.28125 C 122.859375 3.28125 109.453125 1.640625 96.046875 -1.640625 C 82.640625 -4.921875 70.394531 -10.390625 59.3125 -18.046875 C 48.226562 -25.710938 39.332031 -35.835938 32.625 -48.421875 C 25.925781 -61.015625 22.578125 -76.75 22.578125 -95.625 L 77.578125 -95.625 C 77.578125 -82.769531 80.3125 -72.507812 85.78125 -64.84375 C 91.25 -57.1875 98.429688 -51.710938 107.328125 -48.421875 C 116.222656 -45.140625 125.867188 -43.5 136.265625 -43.5 C 149.671875 -43.5 160.34375 -46.578125 168.28125 -52.734375 C 176.21875 -58.890625 180.1875 -67.441406 180.1875 -78.390625 C 180.1875 -87.421875 177.3125 -94.671875 171.5625 -100.140625 C 165.8125 -105.617188 158.21875 -110.203125 148.78125 -113.890625 C 139.34375 -117.585938 128.878906 -121.351562 117.390625 -125.1875 C 107.535156 -128.46875 97.546875 -132.160156 87.421875 -136.265625 C 77.296875 -140.367188 68.0625 -145.429688 59.71875 -151.453125 C 51.375 -157.472656 44.601562 -165.132812 39.40625 -174.4375 C 34.207031 -183.738281 31.609375 -195.226562 31.609375 -208.90625 C 31.609375 -225.601562 35.640625 -239.765625 43.703125 -251.390625 C 51.773438 -263.023438 62.992188 -271.921875 77.359375 -278.078125 C 91.734375 -284.234375 108.222656 -287.3125 126.828125 -287.3125 C 145.429688 -287.3125 162.394531 -284.503906 177.71875 -278.890625 C 193.039062 -273.285156 205.285156 -264.394531 214.453125 -252.21875 C 223.617188 -240.039062 228.203125 -223.960938 228.203125 -203.984375 L 172.390625 -203.984375 C 172.660156 -218.484375 168.144531 -228.742188 158.84375 -234.765625 C 149.539062 -240.785156 138.867188 -243.796875 126.828125 -243.796875 C 115.054688 -243.796875 105.546875 -241.332031 98.296875 -236.40625 C 91.046875 -231.488281 87.421875 -224.238281 87.421875 -214.65625 C 87.421875 -207.269531 89.8125 -201.179688 94.59375 -196.390625 C 99.382812 -191.609375 105.953125 -187.4375 114.296875 -183.875 C 122.648438 -180.320312 131.890625 -176.628906 142.015625 -172.796875 C 152.140625 -169.234375 162.671875 -165.398438 173.609375 -161.296875 C 184.554688 -157.191406 194.816406 -151.925781 204.390625 -145.5 C 213.972656 -139.070312 221.773438 -130.863281 227.796875 -120.875 C 233.816406 -110.882812 236.828125 -98.226562 236.828125 -82.90625 C 236.828125 -56.363281 227.796875 -35.363281 209.734375 -19.90625 C 191.671875 -4.445312 167.179688 3.28125 136.265625 3.28125 Z M 136.265625 3.28125 "/></g></g></g><g fill="#85b7eb" fill-opacity="1"><g transform="translate(245.436669, 726.681135)"><g><path d="M 31.1875 73.0625 L 31.1875 -210.140625 L 84.140625 -210.140625 L 84.140625 -181 C 91.523438 -191.945312 101.238281 -200.222656 113.28125 -205.828125 C 125.320312 -211.441406 138.179688 -214.25 151.859375 -214.25 C 170.191406 -214.25 186.0625 -209.597656 199.46875 -200.296875 C 212.875 -190.992188 223.269531 -178.203125 230.65625 -161.921875 C 238.050781 -145.640625 241.75 -126.691406 241.75 -105.078125 C 241.75 -83.453125 238.050781 -64.429688 230.65625 -48.015625 C 223.269531 -31.597656 212.804688 -18.738281 199.265625 -9.4375 C 185.722656 -0.132812 169.785156 4.515625 151.453125 4.515625 C 137.222656 4.515625 123.953125 1.644531 111.640625 -4.09375 C 99.328125 -9.84375 89.882812 -18.46875 83.3125 -29.96875 L 83.3125 73.0625 Z M 134.625 -39.8125 C 151.039062 -39.8125 164.035156 -45.351562 173.609375 -56.4375 C 183.191406 -67.519531 187.984375 -84.003906 187.984375 -105.890625 C 187.984375 -126.691406 183.191406 -142.5625 173.609375 -153.5 C 164.035156 -164.445312 151.039062 -169.921875 134.625 -169.921875 C 118.75 -169.921875 106.023438 -164.171875 96.453125 -152.671875 C 86.878906 -141.179688 82.09375 -125.585938 82.09375 -105.890625 C 82.09375 -84.828125 86.878906 -68.546875 96.453125 -57.046875 C 106.023438 -45.554688 118.75 -39.8125 134.625 -39.8125 Z M 134.625 -39.8125 "/></g></g></g><g fill="#85b7eb" fill-opacity="1"><g transform="translate(496.208981, 726.681135)"><g><path d="M 212.609375 -109.59375 C 212.609375 -106.300781 212.539062 -103.21875 212.40625 -100.34375 C 212.269531 -97.476562 212.0625 -94.675781 211.78125 -91.9375 L 70.59375 -91.9375 C 71.957031 -74.425781 77.019531 -61.019531 85.78125 -51.71875 C 94.539062 -42.414062 106.304688 -37.765625 121.078125 -37.765625 C 134.210938 -37.765625 144.0625 -40.976562 150.625 -47.40625 C 157.195312 -53.832031 161.300781 -61.695312 162.9375 -71 L 208.5 -71 C 206.3125 -54.039062 201.046875 -39.953125 192.703125 -28.734375 C 184.359375 -17.515625 174.03125 -9.234375 161.71875 -3.890625 C 149.40625 1.441406 135.992188 4.109375 121.484375 4.109375 C 101.234375 4.109375 83.378906 -0.335938 67.921875 -9.234375 C 52.460938 -18.128906 40.421875 -30.71875 31.796875 -47 C 23.179688 -63.28125 18.875 -82.226562 18.875 -103.84375 C 18.875 -125.1875 22.632812 -144.132812 30.15625 -160.6875 C 37.6875 -177.238281 48.835938 -190.300781 63.609375 -199.875 C 78.390625 -209.457031 96.585938 -214.25 118.203125 -214.25 C 138.722656 -214.25 156.03125 -209.597656 170.125 -200.296875 C 184.21875 -190.992188 194.820312 -178.472656 201.9375 -162.734375 C 209.050781 -147.003906 212.609375 -129.289062 212.609375 -109.59375 Z M 117.390625 -173.203125 C 89.203125 -173.203125 73.601562 -158.015625 70.59375 -127.640625 L 161.71875 -127.640625 C 161.164062 -140.234375 157.46875 -150.972656 150.625 -159.859375 C 143.789062 -168.753906 132.710938 -173.203125 117.390625 -173.203125 Z M 117.390625 -173.203125 "/></g></g></g><g fill="#85b7eb" fill-opacity="1"><g transform="translate(709.632173, 726.681135)"><g><path d="M 31.1875 0 L 31.1875 -210.140625 L 83.3125 -210.140625 L 83.3125 -184.28125 C 90.707031 -193.863281 99.804688 -201.253906 110.609375 -206.453125 C 121.421875 -211.648438 134.351562 -214.25 149.40625 -214.25 C 171.289062 -214.25 188.726562 -207.335938 201.71875 -193.515625 C 214.71875 -179.703125 221.21875 -161.300781 221.21875 -138.3125 L 221.21875 0 L 168.28125 0 L 168.28125 -124.765625 C 168.28125 -141.191406 164.925781 -152.957031 158.21875 -160.0625 C 151.519531 -167.175781 142.421875 -170.734375 130.921875 -170.734375 C 117.242188 -170.734375 106.023438 -166.285156 97.265625 -157.390625 C 88.515625 -148.503906 84.140625 -135.988281 84.140625 -119.84375 L 84.140625 0 Z M 31.1875 0 "/></g></g></g><g fill="#85b7eb" fill-opacity="1"><g transform="translate(944.808154, 726.681135)"><g><path d="M 109.171875 4.515625 C 89.742188 4.515625 73.257812 -0.132812 59.71875 -9.4375 C 46.175781 -18.738281 35.914062 -31.664062 28.9375 -48.21875 C 21.957031 -64.78125 18.46875 -83.734375 18.46875 -105.078125 C 18.46875 -126.421875 21.882812 -145.300781 28.71875 -161.71875 C 35.5625 -178.132812 45.753906 -190.992188 59.296875 -200.296875 C 72.847656 -209.597656 89.335938 -214.25 108.765625 -214.25 C 121.898438 -214.25 134.414062 -211.578125 146.3125 -206.234375 C 158.21875 -200.898438 168.003906 -192.625 175.671875 -181.40625 L 175.671875 -283.203125 L 229.03125 -283.203125 L 229.03125 0 L 176.90625 0 L 176.90625 -29.96875 C 169.789062 -18.195312 160.28125 -9.503906 148.375 -3.890625 C 136.46875 1.710938 123.398438 4.515625 109.171875 4.515625 Z M 125.59375 -39.40625 C 141.1875 -39.40625 153.703125 -45.285156 163.140625 -57.046875 C 172.585938 -68.816406 177.3125 -84.960938 177.3125 -105.484375 C 177.3125 -124.910156 172.585938 -140.503906 163.140625 -152.265625 C 153.703125 -164.035156 141.1875 -169.921875 125.59375 -169.921875 C 108.082031 -169.921875 94.8125 -164.3125 85.78125 -153.09375 C 76.75 -141.875 72.234375 -126.003906 72.234375 -105.484375 C 72.234375 -83.867188 76.75 -67.453125 85.78125 -56.234375 C 94.8125 -45.015625 108.082031 -39.40625 125.59375 -39.40625 Z M 125.59375 -39.40625 "/></g></g></g></svg>